<mxGraphModel dx="895" dy="649" grid="1" gridSize="10" guides="1" tooltips="1" connect="1" arrows="1" fold="1" page="1" pageScale="1" pageWidth="827" pageHeight="1169" math="0" shadow="0">
  <root>
    <mxCell id="0" />
    <mxCell id="1" parent="0" />
    <mxCell id="2" value="Quiz" style="rounded=1;whiteSpace=wrap;html=1;" vertex="1" parent="1">
      <mxGeometry x="160" y="150" width="120" height="60" as="geometry" />
    </mxCell>
    <mxCell id="3" value="Kategorie" style="rounded=1;whiteSpace=wrap;html=1;" vertex="1" parent="1">
      <mxGeometry x="350" y="150" width="140" height="60" as="geometry" />
    </mxCell>
    <mxCell id="4" value="Frage" style="rounded=1;whiteSpace=wrap;html=1;" vertex="1" parent="1">
      <mxGeometry x="540" y="150" width="140" height="90" as="geometry" />
    </mxCell>
    <mxCell id="5" edge="1" parent="1" source="2" target="3">
      <mxGeometry relative="1" as="geometry" />
    </mxCell>
    <mxCell id="6" edge="1" parent="1" source="3" target="4">
      <mxGeometry relative="1" as="geometry" />
    </mxCell>
  </root>
</mxGraphModel>
